<svg width="87" height="25" viewBox="0 0 87 25" fill="none" xmlns="http://www.w3.org/2000/svg">

<path d="M26.8807 14H29.6932V10.8466L30.8182 9.42614L33.7159 14H37.0795L32.8807 7.55682L37.0057 2.36364H33.6932L29.8466 7.28409H29.6932V2.36364H26.8807V14ZM40.6321 14L41.3991 11.5568H45.4162L46.1832 14H49.206L45.2798 2.36364H41.5355L37.6094 14H40.6321ZM42.0696 9.42045L43.3594 5.29545H43.4503L44.7457 9.42045H42.0696ZM60.4744 6.57955C60.1903 3.79545 58.1165 2.20455 55.304 2.20455C52.2017 2.20455 49.7869 4.33523 49.7869 8.18182C49.7869 12.0114 52.1449 14.1591 55.304 14.1591C58.4972 14.1591 60.2642 11.9886 60.4744 9.92614L57.6335 9.90909C57.4347 11.0284 56.5938 11.6932 55.3608 11.6932C53.7017 11.6932 52.6562 10.4943 52.6562 8.18182C52.6562 5.96023 53.679 4.67045 55.3778 4.67045C56.6562 4.67045 57.4915 5.41477 57.6335 6.57955H60.4744ZM62.0838 14H64.8963V9.32386H69.4815V14H72.2884V2.36364H69.4815V7.03409H64.8963V2.36364H62.0838V14ZM76.5696 14L77.3366 11.5568H81.3537L82.1207 14H85.1435L81.2173 2.36364H77.473L73.5469 14H76.5696ZM78.0071 9.42045L79.2969 5.29545H79.3878L80.6832 9.42045H78.0071Z" fill="white"/>
<g clip-path="url(#clip0)">
<path d="M16.4108 8.23217V6.78574C16.4108 3.59545 13.8153 1 10.625 1C7.43475 1 4.83931 3.59545 4.83931 6.78574V8.23217H0.5V20.5269C0.5 22.524 2.11897 24.143 4.11609 24.143H17.134C19.1311 24.143 20.7501 22.524 20.7501 20.5269V8.23217H16.4108ZM7.73218 6.78574C7.73218 5.19059 9.0299 3.89287 10.625 3.89287C12.2202 3.89287 13.5179 5.19059 13.5179 6.78574V8.23217H7.73218V6.78574ZM14.9644 12.2099C14.3652 12.2099 13.8795 11.7242 13.8795 11.125C13.8795 10.5259 14.3652 10.0402 14.9644 10.0402C15.5635 10.0402 16.0492 10.5259 16.0492 11.125C16.0492 11.7242 15.5635 12.2099 14.9644 12.2099ZM6.28574 12.2099C5.6866 12.2099 5.20091 11.7242 5.20091 11.125C5.20091 10.5259 5.6866 10.0402 6.28574 10.0402C6.88488 10.0402 7.37057 10.5259 7.37057 11.125C7.37057 11.7242 6.88488 12.2099 6.28574 12.2099Z" fill="white"/>
</g>
<defs>
<clipPath id="clip0">
<rect width="20.2501" height="23.143" fill="white" transform="translate(0.5 1)"/>
</clipPath>
</defs>
</svg>
